# xmcd
# 
# Track frame offsets:
#     150
#     22127
#     45265
#     66591
#     81149
#     103295
# 
# Disc length: 1671
# 
# Revision: 0
# Processed by: cddbd v1.5.2PL0 Copyright (c) Steve Scherf et al.
# Submitted via: fre:ac v1.0.17
# 
DISCID=4e068506
DTITLE=how are blues - Tributo a Rory Gallagher
DYEAR=2013
DGENRE=Blues
TTITLE0=do you read me
TTITLE1=tatoo'd lady
TTITLE2=hands off
TTITLE3=they don't make them you like anymore
TTITLE4=calling card
TTITLE5=moonchild
EXTD=
EXTT0=
EXTT1=
EXTT2=
EXTT3=
EXTT4=
EXTT5=
PLAYORDER=
